<?xml version="1.0" standalone="no"?>
<!DOCTYPE svg PUBLIC "-//W3C//DTD SVG 20010904//EN"
 "http://www.w3.org/TR/2001/REC-SVG-20010904/DTD/svg10.dtd">
<svg version="1.0" xmlns="http://www.w3.org/2000/svg"
 width="700.000000pt" height="700.000000pt" viewBox="0 0 700.000000 700.000000"
 preserveAspectRatio="xMidYMid meet">
<metadata>
Created by potrace 1.11, written by Peter Selinger 2001-2013
</metadata>
<g transform="translate(0.000000,700.000000) scale(0.100000,-0.100000)"
fill="#000000" stroke="none">
<path d="M3615 6742 l-30 -3 0 -102 c0 -95 -9 -212 -19 -264 -3 -12 -8 -54
-11 -95 -4 -40 -8 -75 -10 -78 -2 -3 -6 -30 -10 -60 -3 -30 -26 -179 -51 -330
-25 -151 -47 -302 -50 -335 -8 -105 1 -97 -135 -127 -141 -32 -140 -32 -230
54 -181 173 -347 449 -443 738 -25 74 -46 128 -46 120 0 -8 -4 -46 -7 -85 -10
-93 -10 -350 0 -450 12 -126 17 -153 41 -266 l23 -106 -60 -2 c-109 -4 -255
-21 -363 -42 -28 -5 -61 -12 -75 -14 -49 -10 -65 -13 -108 -25 -40 -11 -45
-10 -70 13 -14 13 -44 39 -66 58 -133 114 -209 198 -268 299 l-27 45 6 -60
c14 -142 55 -277 115 -382 17 -30 30 -55 28 -57 -2 -1 -47 -19 -99 -40 -130
-53 -443 -214 -505 -261 -16 -12 -75 -53 -130 -90 -146 -99 -274 -214 -364
-325 -20 -25 -38 -47 -41 -50 -18 -18 -112 -167 -142 -225 -61 -117 -131 -315
-154 -430 -10 -54 -14 -68 -18 -83 -3 -9 -7 -35 -11 -57 -3 -22 -7 -47 -10
-55 -2 -8 -6 -40 -10 -71 -3 -31 -8 -67 -10 -80 -8 -40 -19 -258 -18 -374 0
-158 16 -354 38 -485 20 -112 29 -158 52 -249 14 -58 29 -116 35 -130 5 -15
12 -35 14 -47 8 -41 82 -231 131 -336 311 -658 859 -1123 1618 -1373 93 -31
200 -63 235 -70 8 -2 55 -13 104 -25 230 -55 538 -98 836 -115 85 -5 511 -6
580 -1 234 17 228 16 445 51 967 155 1688 649 2114 1446 161 301 289 707 327
1034 3 28 7 56 9 63 17 50 24 393 12 563 -6 87 -30 249 -43 291 -3 9 -7 26 -9
37 -3 12 -7 29 -9 39 -30 131 -158 413 -250 551 -273 408 -664 671 -1192 800
-45 11 -117 37 -160 59 -44 21 -117 54 -164 72 -47 18 -97 38 -112 44 -26 10
-26 11 -12 46 22 51 55 211 69 330 5 38 4 42 -6 25 -7 -11 -15 -22 -19 -25 -3
-3 -50 -66 -103 -140 -53 -74 -103 -143 -111 -154 -15 -18 -18 -18 -143 8
-171 35 -214 41 -343 52 -47 4 -106 8 -132 8 -41 1 -48 4 -49 21 -6 118 -16
178 -39 233 l-18 47 -12 -33 c-26 -70 -18 -20 21 133 47 189 120 408 184 560
61 144 75 186 70 210 -2 11 -4 25 -4 32 -3 38 -100 91 -196 108 -69 11 -330
23 -390 17z"/>
</g>
</svg>
